<svg viewBox="0 0 256 256" xmlns="http://www.w3.org/2000/svg"><g id="Layer_1"><g><g><path d="m206.51 162.084v88.63h-157.02v-88.63c2.03 0 3.99-.31 5.84-.88 7.99-2.49 13.79-9.94 13.79-18.75 0 10.84 8.78 19.63 19.62 19.63s19.63-8.79 19.63-19.63c0 10.84 8.79 19.63 19.63 19.63s19.63-8.79 19.63-19.63c0 10.84 8.79 19.63 19.63 19.63s19.62-8.79 19.62-19.63c0 8.65 5.59 15.99 13.36 18.6 1.97.67 4.08 1.03 6.27 1.03z" fill="#72c1e8"></path><path d="m186.88 136.084v6.37c0 10.84-8.78 19.63-19.62 19.63s-19.63-8.79-19.63-19.63c0 10.84-8.79 19.63-19.63 19.63s-19.63-8.79-19.63-19.63c0 10.84-8.79 19.63-19.63 19.63s-19.62-8.79-19.62-19.63v-6.37z" fill="#72c1e8"></path><path d="m136.79 243.227h-77.3c-1.381 0-2.5-1.119-2.5-2.5v-51.12c0-1.381 1.119-2.5 2.5-2.5s2.5 1.119 2.5 2.5v48.62h74.8c1.381 0 2.5 1.119 2.5 2.5s-1.119 2.5-2.5 2.5zm-77.3-61.12c-1.381 0-2.5-1.119-2.5-2.5v-5c0-1.381 1.119-2.5 2.5-2.5s2.5 1.119 2.5 2.5v5c0 1.38-1.12 2.5-2.5 2.5z" fill="#c5e5fe"></path><path d="m196.51 243.227h-12.57c-1.381 0-2.5-1.119-2.5-2.5s1.119-2.5 2.5-2.5h12.569c1.381 0 2.5 1.119 2.5 2.5s-1.119 2.5-2.499 2.5z" fill="#c5e5fe"></path><path d="m206.51 162.084v7c-7.76 0-14.76-3.34-19.63-8.66-10.57 11.55-28.68 11.54-39.25.01-10.59 11.54-28.69 11.52-39.26 0-10.58 11.54-28.69 11.53-39.25-.01-4.87 5.32-11.87 8.66-19.63 8.66v-7c2.03 0 3.99-.31 5.84-.88 7.99-2.49 13.79-9.94 13.79-18.75 0 10.84 8.78 19.63 19.62 19.63s19.63-8.79 19.63-19.63c0 10.84 8.79 19.63 19.63 19.63s19.63-8.79 19.63-19.63c0 10.84 8.79 19.63 19.63 19.63s19.62-8.79 19.62-19.63c0 8.65 5.59 15.99 13.36 18.6 1.97.67 4.08 1.03 6.27 1.03z" fill="#4ba5c8"></path><path d="m186.88 136.084v6.37c0 10.84-8.78 19.63-19.62 19.63s-19.63-8.79-19.63-19.63c0 10.84-8.79 19.63-19.63 19.63s-19.63-8.79-19.63-19.63c0 10.84-8.79 19.63-19.63 19.63s-19.62-8.79-19.62-19.63v-6.37z" fill="#4ba5c8"></path><path d="m226.14 136.084h-196.28l30.9-42.54 134.48.001z" fill="#fc5d3d" style="fill: rgb(255, 0, 0);"></path><path d="m114.55 93.544-6.18 42.54h-39.25l18.53-42.54z" fill="#f2e1d6"></path><path d="m186.88 136.084h-39.25l-6.18-42.54h26.9z" fill="#f2e1d6"></path><path d="m69.12 136.084v6.37c0 8.81-5.8 16.26-13.79 18.75-1.85.57-3.81.88-5.84.88-10.84 0-19.63-8.79-19.63-19.63v-6.37z" fill="#f2e1d6"></path><path d="m108.37 136.084v6.37c0 10.84-8.79 19.63-19.63 19.63s-19.62-8.79-19.62-19.63v-6.37z" fill="#fc5d3d" style="fill: rgb(255, 0, 0);"></path><path d="m147.63 136.084v6.37c0 10.84-8.79 19.63-19.63 19.63s-19.63-8.79-19.63-19.63v-6.37z" fill="#f2e1d6"></path><path d="m186.88 136.084v6.37c0 10.84-8.78 19.63-19.62 19.63s-19.63-8.79-19.63-19.63v-6.37z" fill="#fc5d3d" style="fill: rgb(255, 0, 0);"></path><path d="m226.14 136.084v6.37c0 10.84-8.79 19.63-19.63 19.63-2.19 0-4.3-.36-6.27-1.03-7.77-2.61-13.36-9.95-13.36-18.6v-6.37z" fill="#f2e1d6"></path><path d="m136.788 180.68v70.042h47.152v-70.042c0-1.657-1.343-3-3-3h-41.152c-1.657 0-3 1.343-3 3z" fill="#f2e1d6"></path><path d="m183.94 243.227h-47.15c-1.381 0-2.5-1.119-2.5-2.5s1.119-2.5 2.5-2.5h47.15c1.381 0 2.5 1.119 2.5 2.5s-1.119 2.5-2.5 2.5z" fill="#fff"></path><g fill="#f0c020"><path d="m148.447 186.021h23.833v27.152h-23.833z" transform="matrix(0 1 -1 0 359.96 39.233)" fill="#f0c020" style="fill: rgb(255, 247, 0);"></path><path d="m112.625 212.013h-32.75c-1.657 0-3-1.343-3-3v-28.333c0-1.657 1.343-3 3-3h32.75c1.657 0 3 1.343 3 3v28.333c0 1.657-1.343 3-3 3z" fill="#f0c020" style="fill: rgb(255, 247, 0);"></path><path d="m36.488 91.64c-4.288-1.417-8.716-2.655-11.202-13.364-2.29 9.864-5.958 11.632-11.202 13.364 8.552 2.826 9.842 7.505 11.202 13.364 2.344-10.1 6.22-11.718 11.202-13.364z" fill="#f0c020" style="fill: rgb(255, 247, 0);"></path><path d="m241.915 91.64c-4.288-1.417-8.716-2.655-11.202-13.364-2.29 9.864-5.958 11.632-11.202 13.364 8.552 2.826 9.842 7.505 11.202 13.364 2.343-10.1 6.22-11.718 11.202-13.364z" fill="#f0c020" style="fill: rgb(255, 247, 0);"></path></g><path d="m200.68 78.034-5.44 15.511-134.48.001-5.44-15.512c-1.14-3.25 1.27-6.65 4.72-6.65h135.92c3.45 0 5.86 3.4 4.72 6.65z" fill="#72c1e8"></path><path d="m200.68 78.034-5.44 15.511-134.48.001-5.44-15.512c-1.14-3.25 1.27-6.65 4.72-6.65h135.92c3.45 0 5.86 3.4 4.72 6.65z" fill="#72c1e8"></path><path d="m129.965 33.414v37.97h-54.49c-1.39-2.22-2.5-4.57-3.32-7-3.78-11.21-1.41-24.05 7.15-33.25 3-3.23 6.63-5.86 10.7-7.7 10.566-4.764 23.165-3.754 32.96 3.25 2.65 1.89 5.01 4.16 7 6.73z" fill="#f0c020" style="fill: rgb(255, 247, 0);"></path><path d="m129.965 64.384v7h-54.49c-1.39-2.22-2.5-4.57-3.32-7z" fill="#cf941c"></path><path d="m129.965 33.414v37.97h-7v-44.7c2.65 1.89 5.01 4.16 7 6.73z" fill="#cf941c"></path><path d="m90.005 23.434c-4.07 1.84-7.7 4.47-10.7 7.7-3.87-.9-6.76-4.37-6.76-8.52 0-4.83 3.92-8.75 8.75-8.75 5.303 0 9.255 4.667 8.71 9.57z" fill="#fc5d3d" style="fill: rgb(255, 0, 0);"></path><path d="m185.585 11.204v60.18h-55.62v-60.18c0-1.66 1.34-3 3-3h49.62c1.66 0 3 1.34 3 3z" fill="#fc5d3d" style="fill: rgb(255, 0, 0);"></path><path d="m175.586 58.534c-1.381 0-2.5-1.119-2.5-2.5v-3.45c0-1.381 1.119-2.5 2.5-2.5s2.5 1.119 2.5 2.5v3.45c0 1.381-1.119 2.5-2.5 2.5zm0-13.45c-1.381 0-2.5-1.119-2.5-2.5v-21.88h-33.12c-1.381 0-2.5-1.119-2.5-2.5s1.119-2.5 2.5-2.5h35.62c1.381 0 2.5 1.119 2.5 2.5v24.38c0 1.381-1.119 2.5-2.5 2.5z" fill="#ffcbc3" style="fill: rgb(255, 131, 112);"></path><path d="m129.965 64.384h55.62v7h-55.62z" fill="#b35034"></path><path d="m117.77 64.384c-3.25 4.26-8.39 7-14.14 7-5.76 0-10.88-2.74-14.13-7-8.799-11.501-.694-28.53 14.13-28.53 14.758 0 22.973 16.935 14.14 28.53z" fill="#fc5d3d" style="fill: rgb(255, 0, 0);"></path><path d="m117.77 64.384c-3.25 4.26-8.39 7-14.14 7-5.76 0-10.88-2.74-14.13-7z" fill="#b35034"></path><circle cx="103.629" cy="53.619" fill="#f0c020" r="5.835" style="fill: rgb(255, 247, 0);"></circle></g><path d="m209.05 116.814c.787 1.089 2.353 1.379 3.49.56 1.112-.824 1.373-2.366.56-3.49-.78-1.08-2.42-1.34-3.5-.56-1.095.79-1.377 2.345-.55 3.49z" fill="#000000"></path><path d="m112.625 175.18h-32.75c-3.033 0-5.5 2.467-5.5 5.5v28.333c0 3.033 2.467 5.5 5.5 5.5h32.75c3.033 0 5.5-2.467 5.5-5.5v-28.333c0-3.033-2.468-5.5-5.5-5.5zm-18.875 34.333h-13.875c-.276 0-.5-.224-.5-.5v-11.667h14.375zm0-17.166h-14.375v-11.667c0-.276.224-.5.5-.5h13.875zm19.375 16.666c0 .276-.224.5-.5.5h-13.875v-12.167h14.375zm0-16.666h-14.375v-12.167h13.875c.276 0 .5.224.5.5z" fill="#000000"></path><path d="m152 220.68h-4.372c-1.381 0-2.5 1.119-2.5 2.5s1.119 2.5 2.5 2.5h4.372c1.381 0 2.5-1.119 2.5-2.5s-1.119-2.5-2.5-2.5z" fill="#000000"></path><path d="m173.939 185.18c-.241 0-.389 0-.476 0-.083 0-.112 0-.113 0-.667 0-4.861 0-26.562 0-1.381 0-2.5 1.119-2.5 2.5v23.833c0 1.381 1.119 2.5 2.5 2.5h.473.114 26.565c1.381 0 2.5-1.119 2.5-2.5v-23.833c-.001-1.381-1.12-2.5-2.501-2.5zm-16.079 23.833h-8.572v-6.917h8.572zm0-11.916h-8.572v-6.917h8.572zm13.579 11.916h-8.579v-6.917h8.579zm0-11.916h-8.579v-6.917h8.579z" fill="#000000"></path><path d="m13.246 94.178c7.348 2.429 8.178 6.009 9.435 11.43.638 2.746 4.571 2.752 5.21 0 2.089-9.002 5.17-10.02 9.436-11.429 2.443-.807 2.437-4.273 0-5.078-4.071-1.349-7.291-2.193-9.436-11.43-.636-2.744-4.571-2.752-5.209 0-2.09 9.003-5.171 10.021-9.436 11.43-2.443.807-2.437 4.272 0 5.077zm12.051-7.929c1.394 2.622 3.009 4.282 4.674 5.419-1.747 1.175-3.303 2.789-4.624 5.23-1.059-1.883-2.574-3.663-4.885-5.192 1.836-1.205 3.463-2.876 4.835-5.457z" fill="#000000"></path><path d="m218.673 94.178c7.348 2.429 8.178 6.009 9.435 11.43.638 2.746 4.571 2.752 5.21 0 2.089-9.002 5.17-10.02 9.436-11.429 2.443-.807 2.437-4.273 0-5.078-4.071-1.349-7.291-2.193-9.436-11.43-.636-2.744-4.571-2.752-5.209 0-2.09 9.003-5.171 10.021-9.436 11.43-2.443.807-2.438 4.272 0 5.077zm12.05-7.929c1.394 2.622 3.009 4.282 4.674 5.419-1.747 1.175-3.303 2.789-4.624 5.23-1.059-1.883-2.574-3.663-4.885-5.192 1.836-1.205 3.464-2.876 4.835-5.457z" fill="#000000"></path><path d="m103.629 45.284c-4.596 0-8.335 3.739-8.335 8.335s3.739 8.335 8.335 8.335 8.335-3.739 8.335-8.335-3.74-8.335-8.335-8.335zm0 11.67c-1.839 0-3.335-1.496-3.335-3.335s1.496-3.335 3.335-3.335 3.335 1.496 3.335 3.335-1.496 3.335-3.335 3.335z" fill="#000000"></path><path d="m11.416 253.217h233.167c1.381 0 2.5-1.119 2.5-2.5s-1.119-2.5-2.5-2.5h-35.573v-83.775c11.029-1.246 19.63-10.628 19.63-21.985v-6.37c0-.45-.174-1.048-.479-1.472l-9.19-12.64c-.78-1.08-2.41-1.34-3.49-.56-1.133.839-1.351 2.38-.55 3.49l6.308 8.682h-32.72l-16.353-37.542h21.796l9.22 12.68c.78 1.08 2.41 1.34 3.49.56 1.109-.821 1.367-2.358.55-3.49l-9.19-12.65 5.009-14.282c1.708-4.87-1.911-9.978-7.079-9.978h-7.874v-3.423c12.969-7.667 20.996-21.645 20.996-36.762 0-10.785-12.473-16.907-20.996-10.225v-7.27c0-3.033-2.468-5.5-5.5-5.5h-49.62c-3.033 0-5.5 2.467-5.5 5.5v15.911c-10.051-8.978-23.551-11.196-35.253-7.228-1.543-6.138-7.862-9.848-14.017-8.079-.267-3.198.462-5.698.486-5.78.41-1.315-.321-2.714-1.635-3.128-1.319-.417-2.721.316-3.136 1.632-.064.205-1.423 4.65-.379 9.96-5.3 5.068-4.419 13.73 1.711 17.615-8.02 10.504-9.643 24.651-3.966 36.776h-11.239c-5.159 0-8.79 5.101-7.079 9.978l5.009 14.282-30.13 41.471c-.318.439-.48.979-.48 1.472v6.37c0 11.357 8.601 20.738 19.63 21.985v83.776h-35.574c-1.381 0-2.5 1.119-2.5 2.5s1.119 2.499 2.5 2.499zm176.67-224.518c0-4.411 3.588-7.999 7.998-7.999s7.998 3.588 7.998 7.999c0 12.329-6.05 23.798-15.996 30.814zm-6.646 219.518h-42.152v-67.537c0-.276.225-.5.5-.5h41.152c.275 0 .5.224.5.5zm7.943-105.758v-3.872h34.257v3.87c0 9.445-7.685 17.13-17.13 17.13-9.432 0-17.106-7.664-17.128-17.091 0-.013.001-.025.001-.037zm14.627 21.987v83.771h-17.57v-67.537c0-3.033-2.468-5.5-5.5-5.5h-41.152c-3.032 0-5.5 2.467-5.5 5.5v67.537h-82.298v-83.771c7.198-.811 13.686-5.19 17.128-11.787 8.292 15.888 30.97 15.877 39.254-.003 8.273 15.857 30.954 15.912 39.256 0 8.289 15.889 30.968 15.881 39.254.002 3.444 6.601 9.916 10.97 17.128 11.788zm-92.75-30.86 5.457-37.542h22.566l5.457 37.542zm33.868 5v3.872c0 9.444-7.684 17.127-17.128 17.127s-17.128-7.683-17.128-17.127v-3.872zm-38.921-5h-33.271l16.353-37.542h22.375zm-.335 5v3.872c0 9.444-7.683 17.127-17.127 17.127-9.429 0-17.101-7.659-17.126-17.083 0-.016.001-.031.001-.046v-3.87zm78.509 3.91c-.021 9.427-7.694 17.09-17.125 17.09h-.001c-9.443 0-17.127-7.683-17.127-17.127v-3.872h34.252v3.87c0 .013.001.026.001.039zm-1.317-8.91h-33.272l-5.457-37.542h22.376zm-50.598-122.382c0-.28.22-.5.5-.5h49.62c.28 0 .5.22.5.5v57.68h-50.62c0-6.018 0-51.117 0-57.68zm-57.42 11.41c0-3.446 2.804-6.25 6.25-6.25 3.352 0 5.879 2.587 6.22 5.492-3.067 1.553-6.244 3.794-8.905 6.406-2.151-1.013-3.565-3.18-3.565-5.648zm28.619.39c9.439 0 18.059 4.273 23.8 11.284v34.597h-10.511c14.07-12.334 5.305-35.53-13.329-35.53-18.635 0-27.378 23.192-13.325 35.53h-13.405c-11.596-20.475 3.305-45.881 26.77-45.881zm-.04 45.88c-8.535 0-15.26-6.914-15.26-15.27 0-8.415 6.846-15.26 15.26-15.26 8.42 0 15.27 6.846 15.27 15.26 0 8.342-6.722 15.27-15.27 15.27zm-45.946 8.323c-.571-1.627.631-3.323 2.361-3.323h135.92c1.726 0 2.932 1.692 2.36 3.322v.001l-4.853 13.837h-130.935zm4.351 18.837h21.805l-16.353 37.542h-32.718zm-29.67 46.413v-3.87h34.257v3.872c0 .015.001.029.001.044-.025 9.461-7.729 17.084-17.128 17.084-9.446-.001-17.13-7.685-17.13-17.13z" fill="#000000"></path></g></g></svg>