<svg id="Capa_1" enable-background="new 0 0 512 512" viewBox="0 0 512 512" xmlns="http://www.w3.org/2000/svg"><g><g><path d="m357.37 504.5h-26.13l-77.67-8.18-53.34 5.99c-10.287-2.876-15.022-12.27-13.322-21.15 9.2-47.8 44.312-85.524 96.402-96.47 2.15.49 4.29 1.04 6.4 1.64l19.72 19.17 21.81 1.87c23.12 17.94 39.66 43.94 45.4 73.79 2.33 12.1-6.94 23.34-19.27 23.34z" fill="#eaaa83"></path><path d="m189.98 481.16c-1.7 8.88 2.84 17.3 10.25 21.15l-19.47 2.19h-26.13c-12.33 0-21.6-11.24-19.27-23.34 5.74-29.85 22.28-55.85 45.4-73.79l23.78-3.48 17.75-17.56c10.71-3.05 22.02-4.69 33.71-4.69 9.38 0 18.52 1.06 27.31 3.05-47.24 10.72-84.13 48.67-93.33 96.47z" fill="#e4996d"></path><path d="m331.24 407.38v97.12h-121.99c-15.665 0-24.662-11.24-22.342-23.34 4.59-23.86 15.782-45.765 35.382-62.05v21.51h67.42v-54.27c15.26 4.35 29.31 11.55 41.53 21.03z" fill="#fff8e6"></path><path d="m189.98 481.16c-2.32 12.1 6.95 23.34 19.27 23.34h-28.49v-97.12c12.22-9.48 26.27-16.68 41.53-21.03v32.76c-16.23 16.79-27.72 38.19-32.31 62.05z" fill="#ffeab7"></path><circle cx="404.397" cy="253.425" fill="#ffcbbe" r="36.01"></circle><circle cx="107.603" cy="253.425" fill="#ffcbbe" r="36.01"></circle><path d="m405.04 253.52c0 70.06-48.35 128.82-113.5 144.76-69.625-14.751-118.801-74.7-118.801-144.76s43.494-128.063 118.801-144.76c65.15 15.93 113.5 74.7 113.5 144.76z" fill="#ffddcf"></path><path d="m178.05 253.52c0 70.06 48.34 128.82 113.49 144.76-11.39 2.8-23.29 4.28-35.54 4.28-82.31 0-149.04-66.73-149.04-149.04s66.73-149.03 149.04-149.03c12.25 0 24.15 1.48 35.54 4.26-65.15 15.95-113.49 74.71-113.49 144.77z" fill="#ffcbbe"></path><path d="m430.81 228.95c-73.83 3.89-161.91-35.2-174.81-87.26-6.2 28.31-35.44 51.67-71.12 67.11 9.856-55.847 50.182-91.94 100.842-104.34 15.22-4.79 46.598-5.579 83.158-9.001 37.88 32.071 61.93 79.971 61.93 133.491z" fill="#6b7790"></path><path d="m368.88 95.46c-32.2 4.16-62.12 8.51-77.34 13.3-50.66 12.4-91.16 50.68-106.66 100.04-33.46 14.5-72.59 22.03-103.69 20.15 0-96.54 78.26-174.81 174.81-174.81 43.03 0 82.43 15.55 112.88 41.32z" fill="#5d6a85"></path><path d="m412.11 67.52v82.68h-194.92c-17.455-25.242-15.513-61.373 1-82.68z" fill="#ffeab7"></path><path d="m217.19 150.2h-117.3v-82.68h118.3c-10.21 22.77-10.01 59.26-1 82.68z" fill="#fce3a0"></path><path d="m199.93 104.43h5.94c-.98.02-1.98.03-2.97.03s-1.98-.01-2.97-.03z" fill="#fff8e6"></path><path d="m482.24 55.98c0 14.55-22.48 26.36-50.21 26.36-8.04 0-15.64-1-22.38-2.76-7.24-1.9-14.93-1.19-21.54 2.34-12.77 6.8-30.52 11.02-50.16 11.02-13.66 0-26.41-2.04-37.21-5.58-10.8-3.53-22.58-2.33-32.64 2.94-15.01 7.86-35.13 13.03-57.54 13.99-27.323-25.326-33.822-67.319-1.26-96.67 22.91.82 43.51 6.03 58.8 14.03 10.06 5.28 21.84 6.48 32.64 2.94s23.55-5.58 37.21-5.58c19.64 0 37.39 4.22 50.16 11.02 6.61 3.53 14.3 4.24 21.54 2.34 6.74-1.76 14.34-2.76 22.38-2.76 27.73 0 50.21 11.81 50.21 26.37z" fill="#fff8e6"></path><ellipse cx="177.623" cy="288.293" fill="#ffa1ac" rx="28.919" ry="23.03"></ellipse><ellipse cx="334.377" cy="288.293" fill="#ffa1ac" rx="28.92" ry="23.03"></ellipse><path d="m210.56 104.29c-1.55.07-3.11.12-4.69.14h-5.94c-24.24-.4-46.12-5.71-62.16-14.1-7.6-3.97-16.32-5.1-24.75-3.52-6.54 1.22-13.59 1.89-20.93 1.89-34.42 0-62.33-14.65-62.33-32.72 0-18.08 27.91-32.73 62.33-32.73 7.34 0 14.39.67 20.93 1.89 8.43 1.58 17.15.45 24.75-3.52 16.69-8.73 39.71-14.12 65.13-14.12 2.15 0 4.29.04 6.4.12-21.95 30.36-17.49 71.58 1.26 96.67z" fill="#ffeab7"></path><path d="m210.56 104.29c.03.05.07.09.1.14h-4.79c1.58-.02 3.14-.07 4.69-.14z" fill="#ffcbbe"></path></g><g><path d="m173.213 263.236c0 4.142 3.357 7.5 7.5 7.5s7.5-3.358 7.5-7.5c0-3.455 2.811-6.265 6.265-6.265s6.265 2.811 6.265 6.265c0 4.142 3.357 7.5 7.5 7.5s7.5-3.358 7.5-7.5c0-11.726-9.539-21.265-21.265-21.265s-21.265 9.539-21.265 21.265z"></path><path d="m296.258 263.236c0 4.142 3.357 7.5 7.5 7.5s7.5-3.358 7.5-7.5c0-3.455 2.811-6.265 6.265-6.265s6.265 2.811 6.265 6.265c0 4.142 3.357 7.5 7.5 7.5s7.5-3.358 7.5-7.5c0-11.726-9.539-21.265-21.265-21.265s-21.265 9.539-21.265 21.265z"></path><path d="m264.948 274.396c-2.261 2.593-5.521 4.08-8.948 4.08s-6.688-1.487-8.948-4.08c-2.72-3.122-7.459-3.446-10.581-.726-3.123 2.722-3.447 7.459-.726 10.582 5.109 5.862 12.492 9.224 20.255 9.224s15.146-3.362 20.255-9.224c2.722-3.123 2.397-7.86-.726-10.582-3.123-2.721-7.86-2.396-10.581.726z"></path><path d="m432.028 89.841c32.9 0 57.711-14.557 57.711-33.861s-24.811-33.861-57.711-33.861c-8.504 0-16.672 1.011-24.276 3.004-5.587 1.463-11.312.859-16.119-1.703-14.404-7.678-33.468-11.906-53.679-11.906-13.985 0-27.662 2.059-39.55 5.953-8.659 2.835-18.437 1.941-26.824-2.453-18.483-9.682-42.873-15.014-68.677-15.014-25.77 0-50.136 5.318-68.611 14.974-5.929 3.1-12.995 4.095-19.871 2.807-9.195-1.754-20.053-2.409-29.78-1.801-4.135.259-7.276 3.82-7.018 7.954s3.793 7.266 7.954 7.017c8.53-.533 18.021.037 26.059 1.569 10.191 1.91 20.706.399 29.604-4.252 16.37-8.556 38.27-13.268 61.663-13.268 23.424 0 45.342 4.724 61.716 13.301 11.955 6.262 25.97 7.509 38.454 3.42 10.4-3.407 22.462-5.208 34.881-5.208 17.536 0 34.529 3.697 46.624 10.144 8.147 4.342 17.729 5.398 26.977 2.975 6.364-1.668 13.252-2.514 20.474-2.514 24.445 0 42.711 9.958 42.711 18.861s-18.266 18.861-42.711 18.861c-7.22 0-14.108-.846-20.474-2.514-9.249-2.424-18.828-1.367-26.977 2.975-12.095 6.446-29.088 10.144-46.624 10.144-12.419 0-24.48-1.801-34.881-5.208-12.484-4.088-26.498-2.842-38.454 3.42-16.374 8.578-38.292 13.301-61.716 13.301-23.393 0-45.292-4.712-61.662-13.268-8.9-4.651-19.414-6.162-29.605-4.252-6.252 1.171-12.827 1.765-19.544 1.765-32.313 0-54.831-13.293-54.831-25.224 0-6.268 6.314-12.917 16.891-17.789 3.762-1.733 5.407-6.188 3.675-9.95-1.734-3.762-6.186-5.409-9.95-3.674-16.28 7.498-25.616 18.948-25.616 31.414 0 11.664 7.909 22.24 22.27 29.78 12.881 6.769 29.974 10.498 47.858 10.441v52.298c-11.986 24.313-18.256 50.411-18.659 77.649-6.228 7.72-9.636 17.292-9.636 27.281 0 23.313 18.431 42.397 41.486 43.459 12.294 42.58 42.219 77.75 81.322 97.068-30.465 19.089-52.061 50.198-58.906 85.789-1.533 7.977.554 16.144 5.727 22.406 5.17 6.259 12.79 9.848 20.907 9.848h202.742c8.117 0 15.737-3.589 20.907-9.848 5.173-6.262 7.26-14.429 5.727-22.406-6.837-35.553-28.397-66.633-58.811-85.727 15.476-7.642 29.74-17.9 42.237-30.568 2.909-2.948 2.877-7.697-.071-10.606-2.948-2.908-7.697-2.878-10.606.072-26.814 27.177-62.595 42.145-100.755 42.145-78.043 0-141.535-63.492-141.535-141.535 0-6.111.401-12.256 1.189-18.335 23.182-2.763 47.702-9.158 69.978-18.541 33.832-14.25 58.454-33.514 70.533-54.935 12.047 21.032 35.393 39.967 66.869 54 22.862 10.192 48.358 16.943 73.336 19.656.772 6.022 1.165 12.106 1.165 18.155 0 25.858-7.038 51.157-20.354 73.161-2.145 3.544-1.01 8.155 2.534 10.299 1.214.735 2.553 1.084 3.876 1.084 2.537 0 5.014-1.289 6.424-3.618 7.129-11.782 12.616-24.421 16.397-37.564 23.059-1.057 41.494-20.144 41.494-43.459 0-9.989-3.408-19.561-9.636-27.281-.403-27.238-6.673-53.337-18.659-77.649v-59.406c4.038.497 8.186.748 12.417.748zm-217.233 314.705v28.582h-26.534v-21.988c5.069-3.687 10.459-6.983 16.137-9.829 3.414 1.195 6.881 2.274 10.397 3.235zm108.944 43.581v48.873h-135.478v-48.873zm-178.453 44.472c-2.313-2.8-3.247-6.453-2.561-10.02 4.276-22.236 15.07-42.491 30.535-58.427v72.848h-18.632c-3.626 0-7.031-1.604-9.342-4.401zm223.988-10.021c.687 3.568-.247 7.22-2.561 10.021-2.311 2.797-5.716 4.401-9.343 4.401h-18.632v-72.848c15.466 15.936 26.26 36.19 30.536 58.426zm-45.535-71.439v21.988h-26.534v-28.522c3.54-.959 7.039-2.044 10.493-3.248 5.643 2.835 11 6.116 16.041 9.782zm-41.534-3.255v25.243h-52.41v-25.272c8.524 1.443 17.277 2.205 26.205 2.205 8.875.001 17.631-.741 26.205-2.176zm-167.808-313.701c6.899-1.291 13.964-.297 19.896 2.803 18.476 9.656 42.842 14.974 68.61 14.974 25.804 0 50.193-5.332 68.677-15.014 8.39-4.394 18.166-5.288 26.823-2.453 11.889 3.894 25.565 5.953 39.551 5.953 20.211 0 39.274-4.229 53.679-11.906 3.909-2.083 8.424-2.848 12.979-2.284v56.452h-297.223v-47.445c2.366-.294 4.707-.649 7.008-1.08zm-12.449 187.191c-13.02-2.631-22.854-14.16-22.854-27.945 0-6.095 1.938-11.952 5.5-16.815 5.254.211 10.469.142 15.801-.129-.616 5.663-.93 11.364-.93 17.04 0 9.503.853 18.809 2.483 27.849zm-10.821-59.625c-.768 0-1.527-.005-2.287-.016.933-22.366 6.215-43.852 15.741-64.025h136.502c-24.349 37.71-95.475 64.041-149.956 64.041zm318.904 59.629c1.648-9.148 2.504-18.465 2.504-27.852 0-5.667-.315-11.362-.929-17.019 5.286.236 10.533.283 15.785.088 3.572 4.866 5.515 10.732 5.515 16.835 0 13.791-9.844 25.325-22.875 27.948zm-80.888-79.364c-26.372-11.757-46.771-27.504-57.818-44.306h136.094c9.522 20.165 14.803 41.64 15.74 63.996-30.852.411-64.728-6.632-94.016-19.69z"></path></g></g></svg>