<svg id="Capa_1" enable-background="new 0 0 512 512" viewBox="0 0 512 512" xmlns="http://www.w3.org/2000/svg"><path d="m175.839 79.645c-4.89 0-9.269 2.19-12.21 5.642-2.02 2.371-5.624 2.371-7.644 0-2.941-3.452-7.32-5.642-12.21-5.642-9.737 0-17.446 8.679-15.813 18.724 1.282 7.883 8.684 13.34 16.67 13.34h30.35c7.986 0 15.388-5.458 16.67-13.34 1.633-10.044-6.077-18.724-15.813-18.724z" fill="#ffc269" style="fill: rgb(87, 211, 34);"></path><path d="m223.935 111.71h-128.258c-8.854 0-16.032 7.178-16.032 16.032v96.194h160.323v-96.194c0-8.855-7.178-16.032-16.033-16.032z" fill="#fff0af"></path><path d="m127.742 159.806v-48.096h-32.065c-8.854 0-16.032 7.178-16.032 16.032v96.194h160.323v-40.081h-88.178c-13.281 0-24.048-10.767-24.048-24.049z" fill="#ffe09f"></path><circle cx="63.613" cy="191.871" fill="#ffc269" r="16.032" style="fill: rgb(87, 211, 34);"></circle><circle cx="256" cy="191.871" fill="#ffc269" r="16.032" style="fill: rgb(87, 211, 34);"></circle><path d="m79.644 127.741-.002 27.758c3.032-2.147 6.687-3.708 12-3.708 17.028 0 17.028 16.032 34.055 16.032 17.023 0 17.023-16.032 34.046-16.032 17.025 0 17.025 16.032 34.05 16.032 17.04 0 17.04-16.032 34.08-16.032 5.362 0 9.038 1.585 12.088 3.759l.004-27.805c.001-8.855-7.177-16.034-16.032-16.034h-128.257c-8.854-.001-16.031 7.176-16.032 16.03z" fill="#ff8086" style="fill: rgb(255, 0, 0);"></path><path d="m127.742 111.71h-32.066c-8.854 0-16.032 7.177-16.032 16.031l-.002 27.758c3.032-2.147 6.687-3.708 12-3.708 17.028 0 17.028 16.032 34.055 16.032.77 0 1.342-.186 2.045-.249z" fill="#e5646e" style="fill: rgb(250, 0, 0);"></path><path d="m280.048 207.903h-240.483c-8.854 0-16.032 7.178-16.032 16.032v144.29h272.548v-144.29c0-8.854-7.178-16.032-16.033-16.032z" fill="#fff0af"></path><path d="m103.694 304.097v-96.194h-64.129c-8.854 0-16.032 7.178-16.032 16.032v144.29h272.548v-40.081h-168.339c-13.282.001-24.048-10.766-24.048-24.047z" fill="#ffe09f"></path><path d="m493.791 280.925-37.388-24.925-26.583-95.782c-3.273-9.82-12.463-16.444-22.814-16.444h-62.828c-8.854 0-16.032 7.178-16.032 16.032v224.452h160.323c8.854 0 16.032-7.178 16.032-16.032v-67.292c-.001-8.04-4.019-15.549-10.71-20.009z" fill="#ffc269" style="fill: rgb(87, 211, 34);"></path><path d="m503.897 296.081h-151.703v-152.307h-8.016c-8.854 0-16.032 7.178-16.032 16.032v224.452h160.323c8.854 0 16.032-7.178 16.032-16.032v-67.291c-.001-1.657-.275-3.265-.604-4.854z" fill="#ffa95f" style="fill: rgb(255, 138, 36);"></path><path d="m488.468 384.258h-160.323v-24.048h176.355v8.016c0 8.854-7.178 16.032-16.032 16.032z" fill="#ff8b5a"></path><path d="m328.145 384.258h-312.629c-4.427 0-8.016-3.589-8.016-8.016v-16.032c0-4.427 3.589-8.016 8.016-8.016h312.629z" fill="#9b959d"></path><path d="m15.516 384.258h88.177v-32.065h-88.177c-4.427 0-8.016 3.589-8.016 8.016v16.032c0 4.428 3.589 8.017 8.016 8.017z" fill="#857e87"></path><circle cx="103.694" cy="384.258" fill="#5d5360" r="48.097"></circle><circle cx="103.694" cy="384.258" fill="#eceaec" r="16.032"></circle><circle cx="424.339" cy="384.258" fill="#5d5360" r="48.097"></circle><circle cx="424.339" cy="384.258" fill="#eceaec" r="16.032"></circle><path d="m504.5 328.145v-27.211c0-1.656-.274-3.265-.603-4.854h-15.429c-8.854 0-16.032 7.178-16.032 16.032s7.178 16.032 16.032 16.032h16.032z" fill="#fff0af"></path><path d="m376.242 175.839c-8.854 0-16.032 7.178-16.032 16.032v48.097c0 8.854 7.178 16.032 16.032 16.032h80.161l-22.248-80.161z" fill="#dbeaff"></path><path d="m456.403 256-6.675-24.048h-57.454c-4.42 0-8.016-3.596-8.016-8.016v-48.097h-8.016c-8.854 0-16.032 7.178-16.032 16.032v48.097c0 8.854 7.178 16.032 16.032 16.032z" fill="#c3ddff"></path><path d="m440.371 231.952h-16.032v-32.065h16.032c8.854 0 16.032 7.178 16.032 16.032 0 8.855-7.178 16.033-16.032 16.033z" fill="#c8c5c9"></path><path d="m296.081 247.984c-17.052 0-17.052 16.032-34.103 16.032s-17.052-16.032-34.103-16.032c-17.04 0-17.04 16.032-34.08 16.032-17.025 0-17.025-16.032-34.05-16.032-17.023 0-17.023 16.032-34.046 16.032-17.028 0-17.028-16.032-34.055-16.032s-17.027 16.032-34.055 16.032c-17.027 0-17.027-16.032-34.055-16.032v-24.048c0-8.854 7.178-16.032 16.032-16.032h240.484c8.854 0 16.032 7.178 16.032 16.032v24.048z" fill="#ff8086" style="fill: rgb(255, 0, 0);"></path><path d="m91.642 247.984c5.386 0 8.995 1.674 12.052 3.868v-43.948h-64.129c-8.854 0-16.032 7.178-16.032 16.032v24.048c17.027 0 17.027 16.032 34.055 16.032s17.027-16.032 34.054-16.032z" fill="#e5646e" style="fill: rgb(250, 0, 0);"></path><path d="m103.693 360.726c-12.976 0-23.532 10.557-23.532 23.533s10.557 23.532 23.532 23.532 23.532-10.557 23.532-23.532c.001-12.977-10.556-23.533-23.532-23.533zm0 32.065c-4.705 0-8.532-3.828-8.532-8.532 0-4.705 3.828-8.533 8.532-8.533s8.532 3.828 8.532 8.533c.001 4.704-3.827 8.532-8.532 8.532z" fill="#000000"></path><path d="m424.339 360.726c-12.976 0-23.532 10.557-23.532 23.533s10.557 23.532 23.532 23.532 23.532-10.557 23.532-23.532c0-12.977-10.557-23.533-23.532-23.533zm0 32.065c-4.705 0-8.532-3.828-8.532-8.532 0-4.705 3.828-8.533 8.532-8.533s8.532 3.828 8.532 8.533c0 4.704-3.828 8.532-8.532 8.532z" fill="#000000"></path><path d="m497.951 274.685-35.067-23.378-5.357-19.304c3.95-4.211 6.376-9.867 6.376-16.083 0-10.754-7.254-19.839-17.123-22.638l-9.733-35.07c-.034-.123-.072-.245-.112-.366-4.301-12.902-16.329-21.571-29.93-21.571h-62.828c-12.976 0-23.532 10.557-23.532 23.532v184.371c0 .285-.231.516-.516.516h-16.548v-120.758c0-12.976-10.557-23.532-23.532-23.532h-2.124c1.034-2.647 1.608-5.523 1.608-8.532 0-12.976-10.557-23.532-23.532-23.532-3.009 0-5.885.574-8.532 1.608v-42.205c0-12.976-10.557-23.532-23.532-23.532h-26.172c1.034-2.647 1.608-5.523 1.608-8.532 0-12.976-10.557-23.532-23.532-23.532-6.19 0-11.827 2.406-16.032 6.328-4.206-3.922-9.842-6.328-16.032-6.328-12.976 0-23.533 10.557-23.533 23.532 0 3.009.574 5.885 1.608 8.532h-26.175c-12.976 0-23.532 10.557-23.532 23.532v42.205c-2.647-1.034-5.523-1.608-8.532-1.608-12.976 0-23.532 10.557-23.532 23.532 0 3.009.574 5.885 1.608 8.532h-2.124c-12.976 0-23.532 10.557-23.532 23.532v120.758h-.516c-8.557-.001-15.517 6.96-15.517 15.515v16.032c0 8.556 6.96 15.517 15.516 15.517h33.101c3.675 27.12 26.965 48.097 55.077 48.097s51.402-20.977 55.077-48.097h210.491c3.675 27.12 26.966 48.097 55.077 48.097s51.401-20.977 55.077-48.097h9.052c12.976 0 23.532-10.557 23.532-23.533v-67.291c0-10.571-5.252-20.384-14.049-26.249zm-66.112-67.298h8.532c4.705 0 8.532 3.828 8.532 8.532s-3.828 8.532-8.532 8.532h-8.532zm-175.839-24.048c4.705 0 8.532 3.828 8.532 8.532s-3.828 8.532-8.532 8.532-8.532-3.828-8.532-8.532 3.827-8.532 8.532-8.532zm-80.161-96.194c4.705 0 8.532 3.828 8.532 8.532s-3.828 8.532-8.532 8.532-8.532-3.828-8.532-8.532 3.827-8.532 8.532-8.532zm-32.065 0c4.705 0 8.532 3.828 8.532 8.532s-3.828 8.532-8.532 8.532c-4.705 0-8.533-3.828-8.533-8.532s3.828-8.532 8.533-8.532zm-56.629 40.597c0-4.705 3.828-8.532 8.532-8.532h128.258c4.705 0 8.532 3.828 8.532 8.532v16.884c-1.482-.222-3.01-.335-4.594-.335-11.494 0-17.67 5.811-22.179 10.054-3.963 3.728-6.354 5.979-11.901 5.979-5.537 0-7.926-2.25-11.883-5.976-4.506-4.244-10.679-10.056-22.167-10.056-11.487 0-17.659 5.813-22.165 10.057-3.957 3.726-6.345 5.976-11.88 5.976-5.539 0-7.928-2.25-11.887-5.977-4.507-4.244-10.68-10.056-22.169-10.056-1.549 0-3.046.106-4.497.318zm-23.532 55.597c4.705 0 8.532 3.828 8.532 8.532s-3.828 8.532-8.532 8.532-8.532-3.828-8.532-8.532 3.827-8.532 8.532-8.532zm-32.581 40.597c0-4.705 3.828-8.532 8.532-8.532h56.112c4.142 0 7.5-3.358 7.5-7.5s-3.358-7.5-7.5-7.5h-8.532v-40.444c1.197-.405 2.642-.669 4.497-.669 5.539 0 7.928 2.25 11.887 5.977 4.507 4.244 10.68 10.056 22.169 10.056 11.487 0 17.658-5.813 22.165-10.056 3.957-3.727 6.345-5.976 11.881-5.976 5.537 0 7.926 2.25 11.884 5.977 4.506 4.244 10.679 10.056 22.167 10.056 11.494 0 17.67-5.811 22.179-10.054 3.963-3.728 6.354-5.979 11.901-5.979 1.899 0 3.376.275 4.594.697v40.416h-104.729c-4.142 0-7.5 3.358-7.5 7.5s3.358 7.5 7.5 7.5h152.309c4.705 0 8.532 3.828 8.532 8.532v17.48c-6.903 1.809-11.276 5.911-14.689 9.12-3.967 3.729-6.361 5.98-11.915 5.98s-7.948-2.251-11.914-5.98c-4.512-4.242-10.691-10.052-22.189-10.052-11.494 0-17.67 5.811-22.179 10.054-3.963 3.728-6.354 5.979-11.901 5.979-5.537 0-7.926-2.25-11.883-5.976-4.506-4.244-10.679-10.056-22.167-10.056-11.487 0-17.659 5.813-22.165 10.057-3.957 3.726-6.345 5.976-11.88 5.976-5.539 0-7.928-2.25-11.887-5.977-4.507-4.244-10.68-10.056-22.169-10.056s-17.662 5.812-22.168 10.056c-3.958 3.727-6.348 5.977-11.886 5.977s-7.928-2.25-11.887-5.977c-3.409-3.209-7.775-7.312-14.668-9.123v-17.483zm0 87.661h216.95c4.142 0 7.5-3.358 7.5-7.5s-3.358-7.5-7.5-7.5h-216.95v-38.905c1.414.977 2.77 2.247 4.386 3.769 4.507 4.244 10.68 10.056 22.169 10.056s17.662-5.812 22.168-10.056c3.958-3.727 6.348-5.977 11.886-5.977s7.928 2.25 11.887 5.977c4.507 4.244 10.68 10.056 22.169 10.056 11.487 0 17.658-5.813 22.165-10.056 3.957-3.727 6.345-5.976 11.881-5.976 5.537 0 7.926 2.25 11.884 5.977 4.506 4.244 10.679 10.056 22.167 10.056 11.494 0 17.67-5.811 22.179-10.054 3.963-3.728 6.354-5.979 11.901-5.979 5.554 0 7.948 2.251 11.915 5.98 4.512 4.242 10.691 10.052 22.189 10.052s17.677-5.81 22.189-10.052c1.627-1.53 2.99-2.805 4.415-3.784v38.917h-8.532c-4.142 0-7.5 3.358-7.5 7.5s3.358 7.5 7.5 7.5h8.532v33.097h-145.877c-10.044-9.905-23.824-16.032-39.011-16.032s-28.967 6.127-39.011 16.032h-33.65v-33.098zm17.585 65.161h-33.101c-.285 0-.516-.232-.516-.517v-16.032c0-.285.231-.516.516-.516h38.319c-2.609 5.273-4.398 11.016-5.218 17.065zm55.076 48.097c-22.385 0-40.597-18.211-40.597-40.597s18.211-40.597 40.597-40.597 40.597 18.212 40.597 40.597-18.211 40.597-40.597 40.597zm320.646 0c-22.385 0-40.597-18.211-40.597-40.597s18.212-40.597 40.597-40.597 40.597 18.212 40.597 40.597-18.212 40.597-40.597 40.597zm72.661-56.629c0 4.705-3.828 8.533-8.532 8.533h-9.052c-3.675-27.12-26.965-48.097-55.077-48.097s-51.402 20.977-55.077 48.097h-210.491c-.82-6.049-2.61-11.792-5.219-17.065h166.577c8.556 0 15.516-6.96 15.516-15.516v-40.597h104.726c4.142 0 7.5-3.358 7.5-7.5s-3.358-7.5-7.5-7.5h-104.726v-128.774c0-4.705 3.828-8.532 8.532-8.532h62.828c7.076 0 13.341 4.474 15.644 11.151l8.316 29.962h-6.626c-4.142 0-7.5 3.358-7.5 7.5v32.064c0 4.142 3.358 7.5 7.5 7.5h16.032c1.217 0 2.413-.093 3.58-.272l2.587 9.32h-70.296c-4.705 0-8.532-3.828-8.532-8.532v-48.097c0-4.705 3.828-8.532 8.532-8.532h24.049c4.142 0 7.5-3.358 7.5-7.5s-3.358-7.5-7.5-7.5h-24.049c-12.976 0-23.532 10.557-23.532 23.532v48.097c0 12.976 10.557 23.532 23.532 23.532h77.891l35.498 23.666c.647.431 1.253.907 1.824 1.415h-2.987c-12.976 0-23.532 10.557-23.532 23.532s10.557 23.532 23.532 23.532h8.532zm-8.532-47.581c-4.705 0-8.532-3.828-8.532-8.532s3.828-8.532 8.532-8.532h8.532v17.064z" fill="#000000"></path></svg>