<svg id="Capa_1" enable-background="new 0 0 512.055 512.055" viewBox="0 0 612.055 612.055" xmlns="http://www.w3.org/2000/svg"><g><path d="m497.028 422.055h-20v-185c0-.043-.006-.084-.006-.127-.003-.264-.024-.531-.04-.797-.016-.257-.027-.515-.055-.769-.005-.045-.004-.088-.01-.133-5.722-46.655-27.535-90.382-63.08-126.452-26.704-27.099-51.769-40.44-52.823-40.995-4.324-2.275-9.486-2.303-13.834-.072l-43.782 22.467c-9.73-13.405-24.502-22.915-41.512-25.721-22.987-52.079-67.424-63.489-69.406-63.973-8.012-2.064-16.316 2.685-18.375 10.742-2.151 8.202 3.013 16.554 11.267 18.405 0 0 27.085 7.455 44.399 37.712-24.81 8.899-42.609 32.645-42.609 60.479 0 7.097 1.174 13.921 3.309 20.31l-147.29 75.58c-4.935 2.503-8.177 7.812-8.152 13.346v185h-20c-8.233 0-14.986 6.64-15 14.873-.069 41.414 33.603 75.127 75 75.127h362c41.397 0 75.069-33.713 75-75.127-.015-8.235-6.768-14.875-15.001-14.875zm-245.693-328.469c.021 0 .041.002.062.002.019 0 .038-.002.057-.002 18.851.031 34.177 15.375 34.177 34.234 0 18.878-15.358 34.235-34.235 34.235s-34.235-15.357-34.235-34.235c-.001-18.858 15.324-34.201 34.174-34.234zm-44.888 80.064c11.594 11.373 27.463 18.405 44.949 18.405 35.419 0 64.235-28.815 64.235-64.235 0-3.337-.257-6.615-.75-9.817l38.618-19.817c8.376 5.312 23.775 16.089 39.664 32.355 26.517 27.146 43.646 57.866 51.085 91.514h-332.132zm-141.419 78.405h382v40h-382zm0 70h382v30h-382zm0 60h382v40h-382zm372 100h-362c-19.556 0-36.239-12.539-42.43-30h17.43 412 17.43c-6.192 17.461-22.874 30-42.43 30z" fill="#fff"></path></g></svg>